<?xml version="1.0" encoding="utf-8"?>
<!-- Generator: Adobe Illustrator 28.2.0, SVG Export Plug-In . SVG Version: 6.00 Build 0)  -->
<svg version="1.1" xmlns="http://www.w3.org/2000/svg" xmlns:xlink="http://www.w3.org/1999/xlink" x="0px" y="0px"
	 viewBox="0 0 50 50" style="enable-background:new 0 0 50 50;" xml:space="preserve">
<style type="text/css">
	.st0{fill:#E43B4F;}
</style>
<g id="Layer_1">
	<g>
		<path class="st0" d="M47,3v44H3V3H47 M47,0H3C1.3,0,0,1.3,0,3v44c0,1.7,1.3,3,3,3h44c1.7,0,3-1.3,3-3V3C50,1.3,48.7,0,47,0L47,0z"
			/>
	</g>
</g>
<g id="Layer_2">
	<path class="st0" d="M38.6,37.6H11.4c-1.6,0-2.5-1.7-1.7-3.1l13.6-21.5c0.8-1.2,2.6-1.2,3.4,0l13.6,21.5
		C41.1,35.9,40.2,37.6,38.6,37.6z"/>
</g>
</svg>
